<svg width="124" height="94" viewBox="0 0 124 94" fill="none" xmlns="http://www.w3.org/2000/svg">
<path d="M53.0209 9.36537C39.4068 8.39052 22.0484 11.3365 19.8409 18.9494C17.749 26.164 30.7343 32.4955 28.6777 41.6735C26.6187 50.8675 12.2517 50.484 8.36682 59.7601C6.05682 65.2742 7.31884 74.5266 21.9157 91.0122H109.667C119.943 81.8296 122.319 73.5276 122.947 68.726C126.582 40.921 87.1273 11.8072 53.0209 9.36537Z" fill="#ECF3FE"/>
<path d="M49.6875 87.8972L60.1461 67.3257L19.919 46.9956L9.46036 67.5671L49.6875 87.8972Z" fill="#B7CAE5"/>
<path d="M44.7556 82.9163L16.4053 68.589C17.4099 66.6125 16.5125 64.1472 14.4014 63.0803L19.2112 53.6226C21.3226 54.6895 23.848 53.9525 24.8526 51.977L53.201 66.306C52.1967 68.2825 53.0934 70.7481 55.2049 71.8151L50.3964 81.2724C48.2853 80.2045 45.7599 80.9408 44.7556 82.9163Z" fill="white"/>
<path d="M48.1193 74.1769C48.6214 73.1894 48.1729 71.9565 47.1175 71.4232C46.0622 70.8898 44.7997 71.258 44.2976 72.2455C43.7955 73.233 44.2441 74.4659 45.2994 74.9993C46.3548 75.5326 47.6173 75.1644 48.1193 74.1769Z" fill="#B7CAE5"/>
<path d="M25.0481 62.5514C25.5478 61.5661 25.0992 60.337 24.0462 59.8061C22.9932 59.2753 21.7344 59.6437 21.2347 60.6291C20.735 61.6144 21.1836 62.8435 22.2366 63.3744C23.2897 63.9052 24.5484 63.5368 25.0481 62.5514Z" fill="#B7CAE5"/>
<path d="M41.8313 70.9987C43.6778 67.3667 42.0282 62.8321 38.1468 60.8706C34.2654 58.909 29.622 60.2631 27.7755 63.8952C25.9289 67.5272 27.5785 72.0618 31.4599 74.0234C35.3413 75.9849 39.9847 74.6308 41.8313 70.9987Z" fill="#B7CAE5"/>
<path d="M37.4225 69.4771C37.4211 69.1382 37.3367 68.8047 37.1769 68.5056C37.0159 68.2001 36.7878 67.8956 36.4928 67.5894C36.336 67.4279 36.1667 67.2635 35.9851 67.0963C35.8228 66.9472 35.6491 66.7948 35.4656 66.6413C35.1574 66.3747 34.9385 66.1791 34.8091 66.0547C34.7402 65.9896 34.6753 65.9204 34.6145 65.8477C34.5568 65.779 34.5027 65.7075 34.4522 65.6333C34.3512 65.4926 34.2816 65.3318 34.2483 65.162C34.2215 65.0014 34.2488 64.8365 34.3259 64.693C34.4543 64.4411 34.6895 64.2885 35.0315 64.2354C35.1651 64.2158 35.3008 64.2148 35.4347 64.2324C35.6881 64.2682 35.9333 64.3476 36.1595 64.4669C36.573 64.6759 36.8439 64.9038 36.9722 65.1506C36.981 65.1673 36.989 65.1841 36.9964 65.2012C37.1116 65.4678 37.1657 65.7846 37.1587 66.1516C37.1637 66.4135 37.1905 66.6138 37.2394 66.7522C37.2882 66.8907 37.4034 67.0057 37.5851 67.0973C37.6793 67.147 37.7833 67.1751 37.8898 67.1796C37.9962 67.1841 38.1023 67.1649 38.2003 67.1234C38.3994 67.0498 38.5634 66.9041 38.6596 66.7154C38.7681 66.4924 38.8235 66.2476 38.8216 65.9998C38.8253 65.7298 38.7608 65.436 38.6294 65.1221C38.498 64.8082 38.2867 64.5017 37.9964 64.2052C37.8792 64.0865 37.7534 63.9766 37.6201 63.8762L38.0172 63.095L36.4222 62.289L36.0308 63.0595C35.7384 62.9624 35.4358 62.8992 35.1289 62.8712C34.5913 62.8255 34.1209 62.9102 33.7177 63.1255C33.3145 63.3408 33.0026 63.6634 32.782 64.0933C32.5526 64.5449 32.472 64.9788 32.5401 65.3951C32.6082 65.8114 32.7874 66.2037 33.0777 66.572C33.3092 66.8601 33.563 67.1297 33.8367 67.3783C33.9671 67.4996 34.1078 67.6225 34.2577 67.7468C34.63 68.0555 34.9201 68.3161 35.1279 68.5287C35.1572 68.5585 35.1847 68.5884 35.2106 68.6185C35.3656 68.7893 35.4829 68.9908 35.5547 69.2098C35.6308 69.4516 35.603 69.7022 35.4713 69.9615C35.3047 70.2892 35.0189 70.4878 34.6139 70.5575C34.482 70.5796 34.3481 70.5862 34.2147 70.5772C33.9248 70.5578 33.6199 70.4674 33.2998 70.3059C32.9947 70.1516 32.7641 69.9808 32.6079 69.7937C32.5888 69.7706 32.5706 69.7475 32.5542 69.724C32.4072 69.5306 32.311 69.3036 32.2743 69.0637C32.2428 68.8022 32.2408 68.5381 32.2682 68.2761C32.2924 68.0249 32.2738 67.8167 32.2125 67.6517C32.1512 67.4867 32.0277 67.3521 31.8684 67.2765C31.6621 67.1722 31.4573 67.1547 31.2539 67.2239C31.1562 67.2557 31.066 67.3068 30.9886 67.3742C30.9112 67.4415 30.8482 67.5237 30.8033 67.6159C30.6353 67.9464 30.5736 68.3431 30.6181 68.8061C30.6609 69.2616 30.8126 69.7003 31.0603 70.0855C31.2843 70.4299 31.5918 70.7434 31.9826 71.0261L31.5882 71.8L33.1835 72.606L33.577 71.8318C33.9041 71.9384 34.244 72.0009 34.5877 72.0177C35.1665 72.0423 35.6738 71.9279 36.1097 71.6744C36.5456 71.4209 36.8838 71.0576 37.1241 70.5846C37.3246 70.1889 37.4241 69.8197 37.4225 69.4771Z" fill="white"/>
<g style="mix-blend-mode:multiply" opacity="0.32">
<path d="M18.7448 49.4062L18.5052 49.7761L37.7372 70.8519L38.2026 53.6259L18.7448 49.4062Z" fill="#779AB7"/>
</g>
<path d="M47.5976 75.8395L63.2523 58.8599L30.0491 28.4294L14.3944 45.4091L47.5976 75.8395Z" fill="#B7CAE5"/>
<path d="M44.2032 69.72L20.8018 48.276C22.3051 46.6452 22.1122 44.0292 20.368 42.4322L27.5645 34.6267C29.3073 36.2237 31.9389 36.1959 33.4421 34.5651L56.8432 56.0078C55.3399 57.6385 55.5328 60.2552 57.2766 61.8518L50.0799 69.6573C48.3377 68.0617 45.7065 68.0892 44.2032 69.72Z" fill="white"/>
<path d="M49.8138 62.2226C50.5653 61.4075 50.4684 60.0996 49.5973 59.3013C48.7262 58.5029 47.4109 58.5165 46.6594 59.3316C45.9079 60.1467 46.0049 61.4546 46.8759 62.253C47.747 63.0513 49.0623 63.0377 49.8138 62.2226Z" fill="#B7CAE5"/>
<path d="M30.9846 44.9666C31.7361 44.1516 31.6391 42.8436 30.7681 42.0453C29.897 41.247 28.5817 41.2605 27.8302 42.0756C27.0787 42.8907 27.1756 44.1987 28.0467 44.997C28.9178 45.7953 30.2331 45.7817 30.9846 44.9666Z" fill="#B7CAE5"/>
<path d="M44.6229 57.4656C47.3868 54.4678 47.0303 49.6573 43.8266 46.7211C40.623 43.785 35.7852 43.835 33.0213 46.8329C30.2573 49.8308 30.6138 54.6412 33.8175 57.5774C37.0212 60.5135 41.8589 60.4635 44.6229 57.4656Z" fill="#B7CAE5"/>
<path d="M40.7918 54.8031C40.8824 54.4764 40.8918 54.1326 40.8194 53.8014C40.7473 53.464 40.6106 53.1086 40.4095 52.7351C40.3028 52.5375 40.1845 52.3335 40.0543 52.1231C39.9387 51.9358 39.8127 51.7432 39.678 51.5452C39.454 51.2051 39.2964 50.9577 39.2052 50.8032C39.1568 50.7219 39.1131 50.6379 39.0742 50.5516C39.0373 50.4699 39.0047 50.3864 38.9764 50.3014C38.9176 50.1385 38.8947 49.965 38.9092 49.7925C38.9266 49.6303 38.9975 49.4784 39.1108 49.3607C39.3028 49.1525 39.5709 49.0692 39.9152 49.1108C40.0495 49.128 40.1808 49.1637 40.3053 49.217C40.5395 49.32 40.754 49.463 40.939 49.6394C41.2804 49.952 41.4796 50.2454 41.5361 50.5168C41.5398 50.5355 41.5431 50.5536 41.5451 50.572C41.5837 50.8599 41.5501 51.1795 41.4443 51.5308C41.3771 51.7845 41.3486 51.9844 41.3587 52.1305C41.3687 52.2765 41.4485 52.4185 41.5979 52.5563C41.6751 52.6294 41.7677 52.6846 41.8689 52.7176C41.9702 52.7507 42.0775 52.7609 42.1832 52.7475C42.3947 52.7307 42.5921 52.635 42.7359 52.4795C42.901 52.2944 43.0209 52.0737 43.0864 51.8347C43.163 51.5754 43.1808 51.2755 43.1398 50.9375C43.0988 50.5995 42.9782 50.2481 42.7789 49.884C42.6985 49.7381 42.6073 49.5983 42.5061 49.4659L43.1008 48.819L41.784 47.613L41.1984 48.2495C40.9434 48.0771 40.6693 47.9345 40.3816 47.8247C39.8774 47.6358 39.4009 47.5902 38.9522 47.688C38.5036 47.7859 38.1157 48.0123 37.7887 48.3674C37.4448 48.7402 37.2494 49.1361 37.2023 49.5553C37.1553 49.9745 37.2213 50.4005 37.4003 50.8333C37.5451 51.1731 37.7162 51.5012 37.912 51.8146C38.0047 51.9663 38.1069 52.1228 38.2171 52.2836C38.4917 52.6811 38.7001 53.0104 38.8424 53.2715C38.8625 53.308 38.881 53.3438 38.8975 53.38C39.0004 53.5862 39.0586 53.8118 39.0682 54.042C39.076 54.2957 38.9812 54.5295 38.7839 54.7435C38.5346 55.0139 38.2055 55.1279 37.7967 55.0855C37.6637 55.0714 37.5329 55.0416 37.407 54.9967C37.1335 54.8998 36.8647 54.7304 36.6006 54.4885C36.3486 54.2576 36.1728 54.031 36.0734 53.8088C36.0613 53.7817 36.0502 53.7542 36.0398 53.7271C35.9511 53.5012 35.9201 53.2569 35.9497 53.0162C35.9905 52.7559 36.0604 52.5009 36.1581 52.2561C36.2495 52.0209 36.288 51.8156 36.2736 51.64C36.2594 51.4647 36.1771 51.3018 36.0442 51.1861C35.8737 51.0298 35.6813 50.9575 35.4669 50.9694C35.3642 50.9735 35.2633 50.9983 35.1704 51.0421C35.0774 51.086 34.9943 51.148 34.9259 51.2246C34.6744 51.4975 34.5073 51.8629 34.4246 52.3207C34.3418 52.7707 34.3686 53.2339 34.5026 53.6715C34.6253 54.0634 34.8362 54.4483 35.1353 54.8262L34.5476 55.4627L35.8644 56.6687L36.4534 56.0299C36.7394 56.2206 37.0495 56.3724 37.3757 56.4814C37.9265 56.6612 38.4461 56.6879 38.9344 56.5615C39.4227 56.4351 39.8469 56.1767 40.2069 55.7863C40.5061 55.4616 40.7011 55.1338 40.7918 54.8031Z" fill="white"/>
<path d="M65.7043 93.7137C92.1909 93.7137 113.663 92.5702 113.663 91.1597C113.663 89.7491 92.1909 88.6056 65.7043 88.6056C39.2176 88.6056 17.746 89.7491 17.746 91.1597C17.746 92.5702 39.2176 93.7137 65.7043 93.7137Z" fill="#B7CAE5"/>
<path d="M93.0039 90.9402H110.387V87.7701H93.0039V90.9402Z" fill="#F58042"/>
<path d="M107.546 90.9402H109.036V87.7701H107.546V90.9402Z" fill="#F58042"/>
<path opacity="0.4" d="M94.1087 90.9402H102.29V87.7701H94.1087V90.9402Z" fill="#CC7D15"/>
<path d="M93.0039 90.9399H110.387V90.6632H93.0039V90.9399Z" fill="#EF9D26"/>
<path d="M94.355 87.7701H111.738V84.6H94.355V87.7701Z" fill="#F58042"/>
<path d="M108.897 87.7701H110.387V84.6H108.897V87.7701Z" fill="#F58042"/>
<path opacity="0.4" d="M95.4594 87.7701H103.641V84.6H95.4594V87.7701Z" fill="#CC7D15"/>
<path d="M94.355 87.7701H111.738V87.4934H94.355V87.7701Z" fill="#EF9D26"/>
<path d="M93.5983 84.6H110.982V81.4299H93.5983V84.6Z" fill="#F58042"/>
<path d="M108.14 84.6H109.63V81.4299H108.14V84.6Z" fill="#F58042"/>
<path opacity="0.4" d="M94.703 84.6H102.884V81.4299H94.703V84.6Z" fill="#CC7D15"/>
<path d="M93.5983 84.6H110.982V84.3233H93.5983V84.6Z" fill="#EF9D26"/>
<path d="M92.2476 81.4299H109.631V78.2598H92.2476V81.4299Z" fill="#F58042"/>
<path d="M106.789 81.4299H108.28V78.2598H106.789V81.4299Z" fill="#F58042"/>
<path opacity="0.4" d="M93.3519 81.4299H101.533V78.2598H93.3519V81.4299Z" fill="#CC7D15"/>
<path d="M92.2476 81.4302H109.631V81.1535H92.2476V81.4302Z" fill="#EF9D26"/>
<path d="M93.0039 78.2598H110.387V75.0897H93.0039V78.2598Z" fill="#F58042"/>
<path d="M107.546 78.2598H109.036V75.0897H107.546V78.2598Z" fill="#F58042"/>
<path opacity="0.4" d="M94.1087 78.2598H102.29V75.0897H94.1087V78.2598Z" fill="#CC7D15"/>
<path d="M93.0039 78.2598H110.387V77.9831H93.0039V78.2598Z" fill="#EF9D26"/>
<path d="M106.677 66.6323C106.677 71.3005 102.88 75.0847 98.1988 75.0847C96.1317 75.0879 94.1352 74.3351 92.5876 72.9688C92.4689 72.8647 92.3534 72.7572 92.2412 72.6462C90.7749 71.2062 89.8865 69.282 89.743 67.235C89.7279 67.0363 89.7208 66.8346 89.7208 66.632C89.7208 66.573 89.7215 66.514 89.7228 66.4551C89.7228 66.4132 89.7245 66.3713 89.7262 66.3294C89.7296 66.2289 89.7348 66.129 89.742 66.0296C89.7453 65.9797 89.7494 65.9291 89.7538 65.8806C89.7638 65.766 89.7763 65.6524 89.7911 65.5392C89.7954 65.5057 89.8001 65.4722 89.8045 65.4387C89.8109 65.3955 89.8173 65.3526 89.824 65.3097C89.8294 65.2732 89.8354 65.2367 89.8421 65.2005C89.8441 65.1878 89.8462 65.175 89.8485 65.1626C89.8556 65.1218 89.863 65.0812 89.871 65.0407C89.8717 65.0352 89.8727 65.0297 89.874 65.0243C89.8794 64.9961 89.8851 64.9677 89.8908 64.9399C89.8966 64.9121 89.8999 64.8936 89.905 64.8705C89.9144 64.826 89.9241 64.7817 89.9345 64.7365C89.9402 64.7117 89.9459 64.6869 89.952 64.6628C89.958 64.6387 89.9644 64.6109 89.9708 64.5851C89.9742 64.5704 89.9779 64.5556 89.9819 64.5416C89.99 64.5081 89.9984 64.4746 90.0074 64.4437C90.0179 64.4049 90.0283 64.3657 90.041 64.3272C90.0538 64.2886 90.0602 64.2602 90.0706 64.2267L90.0736 64.2159C90.0837 64.1824 90.0941 64.1489 90.1045 64.1154C90.1042 64.1145 90.1042 64.1134 90.1045 64.1124C90.1269 64.0421 90.1493 63.9721 90.1717 63.9024C90.1815 63.8739 90.1916 63.8458 90.2016 63.8173C90.2042 63.8083 90.2072 63.7995 90.2107 63.7908C90.2221 63.7573 90.2346 63.7255 90.2463 63.693C90.2581 63.6605 90.2725 63.6237 90.2856 63.5891C90.3139 63.5158 90.3431 63.4428 90.374 63.3707C90.3824 63.351 90.3905 63.3312 90.3992 63.3118C90.4079 63.2923 90.419 63.2652 90.4295 63.2421C90.4348 63.2287 90.4405 63.2156 90.4469 63.2026C90.46 63.1721 90.4738 63.1413 90.4883 63.1114C90.4923 63.1011 90.4973 63.0907 90.502 63.0806C90.5202 63.0414 90.5386 63.0029 90.5575 62.9644C90.5763 62.9258 90.5911 62.8954 90.6079 62.8612C90.6166 62.8441 90.6247 62.8277 90.6337 62.8106C90.6478 62.7825 90.6623 62.7547 90.6767 62.7272C90.7386 62.6084 90.8034 62.4914 90.8713 62.3761C90.8854 62.352 90.8992 62.3279 90.914 62.3041C90.9711 62.2083 91.0303 62.1137 91.0917 62.0203L91.1471 61.9363L91.1512 61.9302C91.1875 61.8771 91.2239 61.8241 91.2604 61.7714C91.2731 61.7537 91.2856 61.7359 91.2987 61.7185C91.3175 61.6914 91.3373 61.6646 91.3575 61.6378C91.3776 61.611 91.3954 61.5855 91.4156 61.5597C91.4358 61.5339 91.4492 61.5135 91.468 61.4907C91.512 61.4331 91.5567 61.3758 91.6024 61.3195L91.6716 61.2351L91.7388 61.156C91.7835 61.1038 91.8292 61.0515 91.8753 61.0003C91.8964 60.9762 91.9179 60.9527 91.9394 60.9289C92.0261 60.8344 92.1152 60.7416 92.2059 60.6519C92.2304 60.6267 92.2546 60.603 92.2795 60.5792L92.306 60.553C92.3352 60.5246 92.3655 60.4964 92.3957 60.468C92.4344 60.4318 92.4737 60.3959 92.513 60.3604C92.5405 60.3353 92.5684 60.3102 92.5967 60.2861C92.6437 60.2448 92.6907 60.204 92.7384 60.1644C92.7613 60.145 92.7841 60.1256 92.8073 60.1072L92.8282 60.0897C92.8618 60.0619 92.8954 60.0348 92.929 60.008C92.9646 59.9802 92.9998 59.9521 93.0358 59.9249L93.0472 59.9162C93.0768 59.8934 93.106 59.8713 93.1356 59.8492C93.2073 59.7958 93.2797 59.7438 93.353 59.6931L93.4165 59.6492L93.5173 59.5822L93.6208 59.5152C93.6608 59.4894 93.7007 59.4643 93.7411 59.4395C93.7814 59.4147 93.8133 59.3953 93.8493 59.3725C93.9044 59.3397 93.9604 59.3075 94.0173 59.276C94.0465 59.2589 94.0761 59.2425 94.106 59.2261L94.1123 59.2228C94.153 59.2 94.1943 59.1779 94.2357 59.1558C95.4561 58.5114 96.8165 58.1757 98.1974 58.1779C98.3291 58.1779 98.4602 58.1806 98.5899 58.1873C103.092 58.393 106.677 62.095 106.677 66.6323Z" fill="#F58042"/>
<path d="M104.866 66.6323C104.866 70.3036 101.881 73.2797 98.1988 73.2797C96.5967 73.2819 95.0478 72.7066 93.8375 71.66C93.8375 71.66 93.8375 71.66 93.8375 71.6583C93.1135 71.0352 92.5329 70.2638 92.1353 69.3966C91.7376 68.5294 91.5322 67.5868 91.5332 66.6333C91.5332 62.962 94.5186 59.9859 98.2001 59.9859C99.9683 59.9862 101.664 60.6866 102.914 61.9332C104.165 63.1797 104.867 64.8704 104.867 66.6333L104.866 66.6323Z" fill="#EF9D26"/>
<path d="M104.866 66.6323C104.866 70.3035 101.881 73.2797 98.1987 73.2797C96.5966 73.2818 95.0477 72.7066 93.8375 71.66C93.8375 71.66 93.8375 71.66 93.8375 71.6583C93.1978 71.0396 92.6895 70.299 92.3428 69.4805C91.9961 68.6621 91.818 67.7824 91.8191 66.8939C91.8191 63.2223 94.8045 60.2458 98.486 60.2458C99.3323 60.223 100.174 60.3727 100.961 60.6859C101.747 60.9991 102.46 61.4691 103.058 62.0671C103.655 62.6651 104.124 63.3784 104.435 64.1635C104.746 64.9485 104.893 65.7886 104.867 66.6323H104.866Z" fill="#F58042"/>
<path d="M91.6575 42.5126V79.2239C91.6575 80.5944 90.6381 81.8805 89.3771 82.1049C89.369 82.1088 89.3602 82.111 89.3512 82.1116L37.0632 90.9097C35.7895 91.1241 34.7566 90.1791 34.7566 88.7992V52.0876C34.7566 50.7071 35.7895 49.4143 37.0632 49.1999L89.3512 40.4014C90.625 40.187 91.6575 41.1321 91.6575 42.5126Z" fill="#3B82F4"/>
<path d="M89.3771 46.0981V82.1046C89.369 82.1084 89.3602 82.1107 89.3512 82.1113L37.0632 90.9097C35.7895 91.1241 34.7566 90.1791 34.7566 88.7992V52.7887C34.7649 52.7853 34.7738 52.7831 34.7828 52.7824L87.0708 43.9839C88.3446 43.7695 89.3771 44.7146 89.3771 46.0981Z" fill="#20225C"/>
<path opacity="0.35" d="M83.5395 37.157L81.1777 55.9947H68.8583L83.5395 37.157Z" fill="#20225C"/>
<path d="M60.976 21.0224L84.7951 31.3216C85.7762 31.7457 86.2624 32.8003 85.881 33.6767L67.905 75.0046C67.5236 75.8813 66.4196 76.2481 65.4384 75.824L41.6191 65.5248C40.6383 65.1003 40.1521 64.0461 40.5334 63.1694L58.5094 21.8414C58.8908 20.9651 59.9952 20.5983 60.976 21.0224Z" fill="white"/>
<path d="M63.2971 22.0313L43.9362 66.532L48.9138 68.6847L68.2747 24.184L63.2971 22.0313Z" fill="#F58042"/>
<path d="M63.9556 46.7204L55.3395 66.5243C55.148 66.9646 55.3507 67.4763 55.7923 67.6673L55.8823 67.7062C56.3239 67.8972 56.8372 67.6951 57.0287 67.2548L65.6448 47.451C65.8363 47.0107 65.6336 46.499 65.192 46.308L65.102 46.269C64.6604 46.078 64.1471 46.2801 63.9556 46.7204Z" fill="#E4ECF9"/>
<path d="M70.0758 42.3205L58.8797 68.0546C58.6881 68.4949 58.8908 69.0067 59.3324 69.1977L59.4224 69.2366C59.864 69.4276 60.3773 69.2255 60.5689 68.7852L71.765 43.0511C71.9566 42.6108 71.7539 42.099 71.3123 41.9081L71.2223 41.8691C70.7807 41.6781 70.2674 41.8803 70.0758 42.3205Z" fill="#E4ECF9"/>
<path d="M73.616 43.8516L62.4198 69.5857C62.2283 70.026 62.431 70.5378 62.8726 70.7287L62.9626 70.7677C63.4042 70.9587 63.9175 70.7566 64.109 70.3163L75.3052 44.5822C75.4967 44.1419 75.294 43.6301 74.8524 43.4391L74.7624 43.4002C74.3208 43.2092 73.8075 43.4113 73.616 43.8516Z" fill="#E4ECF9"/>
<path d="M94.1433 49.4062H37.2648C35.8796 49.4062 34.7566 50.5259 34.7566 51.907V88.617C34.7566 89.9981 35.8796 91.1178 37.2648 91.1178H94.1433C95.5285 91.1178 96.6515 89.9981 96.6515 88.617V51.907C96.6515 50.5259 95.5285 49.4062 94.1433 49.4062Z" fill="#3B82F4"/>
<path d="M90.1646 89.1865H87.4501C87.2736 89.1826 87.1057 89.1099 86.9823 88.9841C86.8589 88.8583 86.7898 88.6893 86.7898 88.5133C86.7898 88.3373 86.8589 88.1684 86.9823 88.0425C87.1057 87.9167 87.2736 87.8441 87.4501 87.8401H90.1646C90.2546 87.8381 90.344 87.8541 90.4277 87.887C90.5114 87.9199 90.5876 87.9692 90.6519 88.0319C90.7162 88.0946 90.7673 88.1695 90.8022 88.2522C90.8371 88.3348 90.8551 88.4236 90.8551 88.5133C90.8551 88.603 90.8371 88.6918 90.8022 88.7745C90.7673 88.8571 90.7162 88.932 90.6519 88.9947C90.5876 89.0574 90.5114 89.1067 90.4277 89.1396C90.344 89.1726 90.2546 89.1885 90.1646 89.1865ZM84.7356 89.1865H82.0214C81.9314 89.1885 81.842 89.1726 81.7583 89.1396C81.6746 89.1067 81.5984 89.0574 81.5341 88.9947C81.4698 88.932 81.4187 88.8571 81.3838 88.7745C81.3489 88.6918 81.3309 88.603 81.3309 88.5133C81.3309 88.4236 81.3489 88.3348 81.3838 88.2522C81.4187 88.1695 81.4698 88.0946 81.5341 88.0319C81.5984 87.9692 81.6746 87.9199 81.7583 87.887C81.842 87.8541 81.9314 87.8381 82.0214 87.8401H84.7356C84.8255 87.8381 84.9149 87.8541 84.9986 87.887C85.0823 87.9199 85.1585 87.9692 85.2228 88.0319C85.2871 88.0946 85.3382 88.1695 85.3731 88.2522C85.408 88.3348 85.426 88.4236 85.426 88.5133C85.426 88.603 85.408 88.6918 85.3731 88.7745C85.3382 88.8571 85.2871 88.932 85.2228 88.9947C85.1585 89.0574 85.0823 89.1067 84.9986 89.1396C84.9149 89.1726 84.8255 89.1885 84.7356 89.1865ZM79.3068 89.1865H76.5923C76.5023 89.1885 76.4129 89.1726 76.3292 89.1396C76.2456 89.1067 76.1693 89.0574 76.105 88.9947C76.0407 88.932 75.9896 88.8571 75.9547 88.7745C75.9198 88.6918 75.9018 88.603 75.9018 88.5133C75.9018 88.4236 75.9198 88.3348 75.9547 88.2522C75.9896 88.1695 76.0407 88.0946 76.105 88.0319C76.1693 87.9692 76.2456 87.9199 76.3292 87.887C76.4129 87.8541 76.5023 87.8381 76.5923 87.8401H79.3068C79.4833 87.8441 79.6512 87.9167 79.7746 88.0425C79.898 88.1684 79.9671 88.3373 79.9671 88.5133C79.9671 88.6893 79.898 88.8583 79.7746 88.9841C79.6512 89.1099 79.4833 89.1826 79.3068 89.1865ZM73.8784 89.1865H71.1638C71.0739 89.1885 70.9845 89.1726 70.9008 89.1396C70.8171 89.1067 70.7409 89.0574 70.6766 88.9947C70.6123 88.932 70.5612 88.8571 70.5263 88.7745C70.4914 88.6918 70.4734 88.603 70.4734 88.5133C70.4734 88.4236 70.4914 88.3348 70.5263 88.2522C70.5612 88.1695 70.6123 88.0946 70.6766 88.0319C70.7409 87.9692 70.8171 87.9199 70.9008 87.887C70.9845 87.8541 71.0739 87.8381 71.1638 87.8401H73.8784C74.0549 87.8441 74.2228 87.9167 74.3462 88.0425C74.4696 88.1684 74.5387 88.3373 74.5387 88.5133C74.5387 88.6893 74.4696 88.8583 74.3462 88.9841C74.2228 89.1099 74.0549 89.1826 73.8784 89.1865ZM68.4493 89.1865H65.7348C65.6448 89.1885 65.5554 89.1726 65.4717 89.1396C65.3881 89.1067 65.3118 89.0574 65.2475 88.9947C65.1832 88.932 65.1321 88.8571 65.0972 88.7745C65.0623 88.6918 65.0443 88.603 65.0443 88.5133C65.0443 88.4236 65.0623 88.3348 65.0972 88.2522C65.1321 88.1695 65.1832 88.0946 65.2475 88.0319C65.3118 87.9692 65.3881 87.9199 65.4717 87.887C65.5554 87.8541 65.6448 87.8381 65.7348 87.8401H68.4493C68.5392 87.8381 68.6287 87.8541 68.7123 87.887C68.796 87.9199 68.8723 87.9692 68.9366 88.0319C69.0009 88.0946 69.052 88.1695 69.0869 88.2522C69.1218 88.3348 69.1397 88.4236 69.1397 88.5133C69.1397 88.603 69.1218 88.6918 69.0869 88.7745C69.052 88.8571 69.0009 88.932 68.9366 88.9947C68.8723 89.0574 68.796 89.1067 68.7123 89.1396C68.6287 89.1726 68.5392 89.1885 68.4493 89.1865ZM63.0202 89.1865H60.304C60.2141 89.1885 60.1246 89.1726 60.041 89.1396C59.9573 89.1067 59.8811 89.0574 59.8167 88.9947C59.7524 88.932 59.7013 88.8571 59.6664 88.7745C59.6315 88.6918 59.6136 88.603 59.6136 88.5133C59.6136 88.4236 59.6315 88.3348 59.6664 88.2522C59.7013 88.1695 59.7524 88.0946 59.8167 88.0319C59.8811 87.9692 59.9573 87.9199 60.041 87.887C60.1246 87.8541 60.2141 87.8381 60.304 87.8401H63.0185C63.1085 87.8381 63.1979 87.8541 63.2816 87.887C63.3652 87.9199 63.4415 87.9692 63.5058 88.0319C63.5701 88.0946 63.6212 88.1695 63.6561 88.2522C63.691 88.3348 63.709 88.4236 63.709 88.5133C63.709 88.603 63.691 88.6918 63.6561 88.7745C63.6212 88.8571 63.5701 88.932 63.5058 88.9947C63.4415 89.0574 63.3652 89.1067 63.2816 89.1396C63.1979 89.1726 63.1085 89.1885 63.0185 89.1865H63.0202ZM57.5911 89.1865H54.8766C54.7001 89.1826 54.5322 89.1099 54.4088 88.9841C54.2854 88.8583 54.2163 88.6893 54.2163 88.5133C54.2163 88.3373 54.2854 88.1684 54.4088 88.0425C54.5322 87.9167 54.7001 87.8441 54.8766 87.8401H57.5911C57.6811 87.8381 57.7705 87.8541 57.8542 87.887C57.9378 87.9199 58.0141 87.9692 58.0784 88.0319C58.1427 88.0946 58.1938 88.1695 58.2287 88.2522C58.2636 88.3348 58.2816 88.4236 58.2816 88.5133C58.2816 88.603 58.2636 88.6918 58.2287 88.7745C58.1938 88.8571 58.1427 88.932 58.0784 88.9947C58.0141 89.0574 57.9378 89.1067 57.8542 89.1396C57.7705 89.1726 57.6811 89.1885 57.5911 89.1865ZM52.162 89.1865H49.4475C49.271 89.1826 49.1031 89.1099 48.9797 88.9841C48.8563 88.8583 48.7872 88.6893 48.7872 88.5133C48.7872 88.3373 48.8563 88.1684 48.9797 88.0425C49.1031 87.9167 49.271 87.8441 49.4475 87.8401H52.162C52.252 87.8381 52.3414 87.8541 52.4251 87.887C52.5088 87.9199 52.585 87.9692 52.6493 88.0319C52.7136 88.0946 52.7647 88.1695 52.7996 88.2522C52.8345 88.3348 52.8525 88.4236 52.8525 88.5133C52.8525 88.603 52.8345 88.6918 52.7996 88.7745C52.7647 88.8571 52.7136 88.932 52.6493 88.9947C52.585 89.0574 52.5088 89.1067 52.4251 89.1396C52.3414 89.1726 52.252 89.1885 52.162 89.1865ZM46.733 89.1865H44.0181C43.9281 89.1885 43.8387 89.1726 43.755 89.1396C43.6714 89.1067 43.5951 89.0574 43.5308 88.9947C43.4665 88.932 43.4154 88.8571 43.3805 88.7745C43.3456 88.6918 43.3277 88.603 43.3277 88.5133C43.3277 88.4236 43.3456 88.3348 43.3805 88.2522C43.4154 88.1695 43.4665 88.0946 43.5308 88.0319C43.5951 87.9692 43.6714 87.9199 43.755 87.887C43.8387 87.8541 43.9281 87.8381 44.0181 87.8401H46.7323C46.8222 87.8381 46.9117 87.8541 46.9953 87.887C47.079 87.9199 47.1552 87.9692 47.2195 88.0319C47.2839 88.0946 47.335 88.1695 47.3698 88.2522C47.4047 88.3348 47.4227 88.4236 47.4227 88.5133C47.4227 88.603 47.4047 88.6918 47.3698 88.7745C47.335 88.8571 47.2839 88.932 47.2195 88.9947C47.1552 89.0574 47.079 89.1067 46.9953 89.1396C46.9117 89.1726 46.8222 89.1885 46.7323 89.1865H46.733ZM41.3042 89.1865H38.9992C38.8166 89.1866 38.6344 89.1681 38.4556 89.1312C38.3676 89.1145 38.2838 89.0805 38.2091 89.0312C38.1344 88.9819 38.0703 88.9182 38.0205 88.8439C37.9707 88.7697 37.9363 88.6863 37.9191 88.5986C37.902 88.5109 37.9025 88.4207 37.9207 88.3333C37.9388 88.2458 37.9743 88.1628 38.0249 88.0891C38.0756 88.0154 38.1404 87.9525 38.2157 87.9041C38.291 87.8556 38.3752 87.8226 38.4634 87.8069C38.5516 87.7912 38.642 87.7932 38.7294 87.8127C38.8179 87.8308 38.9079 87.84 38.9982 87.8401H41.3032C41.4797 87.8441 41.6476 87.9167 41.771 88.0425C41.8944 88.1684 41.9635 88.3373 41.9635 88.5133C41.9635 88.6893 41.8944 88.8583 41.771 88.9841C41.6476 89.1099 41.4797 89.1826 41.3032 89.1865H41.3042ZM92.8748 89.1326C92.7094 89.1324 92.5499 89.0718 92.4264 88.9621C92.3029 88.8524 92.224 88.7014 92.2047 88.5376C92.1855 88.3739 92.2271 88.2088 92.3219 88.0736C92.4166 87.9384 92.5577 87.8426 92.7186 87.8043C93.0069 87.7361 93.2636 87.5727 93.447 87.3406C93.6304 87.1085 93.7296 86.8214 93.7286 86.5259V86.473C93.7325 86.2971 93.8054 86.1297 93.9316 86.0066C94.0578 85.8836 94.2273 85.8147 94.4038 85.8147C94.5803 85.8147 94.7498 85.8836 94.876 86.0066C95.0022 86.1297 95.075 86.2971 95.079 86.473V86.5246C95.0808 87.1229 94.8796 87.7043 94.508 88.1741C94.1364 88.6439 93.6164 88.9746 93.0324 89.1125C92.9806 89.1249 92.9275 89.1311 92.8742 89.1309L92.8748 89.1326ZM37.0058 87.2033C36.9172 87.2037 36.8295 87.1867 36.7476 87.1533C36.6656 87.1198 36.5912 87.0705 36.5284 87.0083C36.4657 86.946 36.4158 86.872 36.3819 86.7905C36.3479 86.709 36.3304 86.6216 36.3304 86.5333V83.8198C36.3304 83.6412 36.4016 83.47 36.5282 83.3437C36.6549 83.2174 36.8266 83.1465 37.0058 83.1465C37.1849 83.1465 37.3567 83.2174 37.4833 83.3437C37.61 83.47 37.6811 83.6412 37.6811 83.8198V86.5263C37.6808 86.7051 37.6095 86.8764 37.4828 87.003C37.3561 87.1295 37.1844 87.2009 37.0051 87.2016L37.0058 87.2033ZM94.404 84.4412C94.2248 84.4412 94.0531 84.3703 93.9264 84.244C93.7998 84.1177 93.7286 83.9465 93.7286 83.7679V81.0614C93.7325 80.8855 93.8054 80.7181 93.9316 80.595C94.0578 80.472 94.2273 80.4031 94.4038 80.4031C94.5803 80.4031 94.7498 80.472 94.876 80.595C95.0022 80.7181 95.075 80.8855 95.079 81.0614V83.7679C95.0785 83.9462 95.0071 84.1171 94.8805 84.243C94.7538 84.369 94.5822 84.4396 94.4033 84.4396L94.404 84.4412ZM37.0058 81.7864C36.8266 81.7864 36.6549 81.7154 36.5282 81.5891C36.4016 81.4629 36.3304 81.2916 36.3304 81.113V78.4065C36.3304 78.228 36.4016 78.0567 36.5282 77.9304C36.6549 77.8041 36.8266 77.7332 37.0058 77.7332C37.1849 77.7332 37.3567 77.8041 37.4833 77.9304C37.61 78.0567 37.6811 78.228 37.6811 78.4065V81.113C37.6807 81.2914 37.6092 81.4624 37.4825 81.5883C37.3557 81.7142 37.184 81.7849 37.0051 81.7847L37.0058 81.7864ZM94.404 79.0283C94.2248 79.0283 94.0531 78.9574 93.9264 78.8311C93.7998 78.7048 93.7286 78.5335 93.7286 78.3549V75.6488C93.7266 75.5591 93.7426 75.47 93.7756 75.3866C93.8086 75.3031 93.8581 75.2271 93.921 75.163C93.9838 75.0989 94.059 75.0479 94.1419 75.0131C94.2248 74.9784 94.3138 74.9605 94.4038 74.9605C94.4937 74.9605 94.5828 74.9784 94.6657 75.0131C94.7486 75.0479 94.8237 75.0989 94.8866 75.163C94.9495 75.2271 94.999 75.3031 95.032 75.3866C95.065 75.47 95.081 75.5591 95.079 75.6488V78.3549C95.0785 78.5333 95.0071 78.7042 94.8805 78.8301C94.7538 78.956 94.5822 79.0267 94.4033 79.0266L94.404 79.0283ZM37.0058 76.3734C36.8266 76.3734 36.6549 76.3025 36.5282 76.1762C36.4016 76.0499 36.3304 75.8787 36.3304 75.7001V72.9936C36.3304 72.815 36.4016 72.6438 36.5282 72.5175C36.6549 72.3912 36.8266 72.3203 37.0058 72.3203C37.1849 72.3203 37.3567 72.3912 37.4833 72.5175C37.61 72.6438 37.6811 72.815 37.6811 72.9936V75.7001C37.6807 75.8785 37.6092 76.0494 37.4825 76.1754C37.3557 76.3013 37.184 76.3719 37.0051 76.3717L37.0058 76.3734ZM94.404 73.6154C94.3153 73.6154 94.2275 73.598 94.1455 73.5642C94.0636 73.5304 93.9891 73.4809 93.9264 73.4184C93.8637 73.3559 93.814 73.2817 93.78 73.2C93.7461 73.1183 93.7286 73.0308 93.7286 72.9424V70.2359C93.7266 70.1462 93.7426 70.0571 93.7756 69.9736C93.8086 69.8902 93.8581 69.8142 93.921 69.7501C93.9838 69.686 94.059 69.635 94.1419 69.6002C94.2248 69.5654 94.3138 69.5475 94.4038 69.5475C94.4937 69.5475 94.5828 69.5654 94.6657 69.6002C94.7486 69.635 94.8237 69.686 94.8866 69.7501C94.9495 69.8142 94.999 69.8902 95.032 69.9736C95.065 70.0571 95.081 70.1462 95.079 70.2359V72.9424C95.0785 73.1207 95.0071 73.2915 94.8804 73.4174C94.7538 73.5433 94.5821 73.6139 94.4033 73.6137L94.404 73.6154ZM37.0058 70.9605C36.8266 70.9605 36.6549 70.8895 36.5282 70.7633C36.4016 70.637 36.3304 70.4657 36.3304 70.2871V67.579C36.3304 67.4004 36.4016 67.2291 36.5282 67.1029C36.6549 66.9766 36.8266 66.9056 37.0058 66.9056C37.1849 66.9056 37.3567 66.9766 37.4833 67.1029C37.61 67.2291 37.6811 67.4004 37.6811 67.579V70.2851C37.6812 70.3736 37.6637 70.4613 37.6297 70.5431C37.5958 70.6248 37.546 70.6991 37.4832 70.7617C37.4204 70.8243 37.3459 70.8739 37.2638 70.9077C37.1818 70.9415 37.0939 70.9589 37.0051 70.9588L37.0058 70.9605ZM94.404 68.2028C94.2248 68.2028 94.0531 68.1318 93.9264 68.0056C93.7998 67.8793 93.7286 67.708 93.7286 67.5294V64.823C93.7266 64.7333 93.7426 64.6441 93.7756 64.5607C93.8086 64.4773 93.8581 64.4013 93.921 64.3371C93.9838 64.273 94.059 64.2221 94.1419 64.1873C94.2248 64.1525 94.3138 64.1346 94.4038 64.1346C94.4937 64.1346 94.5828 64.1525 94.6657 64.1873C94.7486 64.2221 94.8237 64.273 94.8866 64.3371C94.9495 64.4013 94.999 64.4773 95.032 64.5607C95.065 64.6441 95.081 64.7333 95.079 64.823V67.5294C95.0785 67.7078 95.0071 67.8787 94.8805 68.0046C94.7538 68.1305 94.5822 68.2012 94.4033 68.2011L94.404 68.2028ZM37.0058 65.5476C36.9171 65.5476 36.8293 65.5302 36.7473 65.4964C36.6654 65.4626 36.5909 65.4131 36.5282 65.3506C36.4655 65.2881 36.4158 65.2139 36.3818 65.1322C36.3479 65.0505 36.3304 64.963 36.3304 64.8745V62.1681C36.3304 61.9895 36.4016 61.8182 36.5282 61.6919C36.6549 61.5657 36.8266 61.4947 37.0058 61.4947C37.1849 61.4947 37.3567 61.5657 37.4833 61.6919C37.61 61.8182 37.6811 61.9895 37.6811 62.1681V64.8745C37.6807 65.0529 37.6092 65.2238 37.4825 65.3497C37.3557 65.4756 37.184 65.5462 37.0051 65.5459L37.0058 65.5476ZM94.4033 62.7885C94.2242 62.7885 94.0524 62.7176 93.9257 62.5913C93.7991 62.465 93.7279 62.2937 93.7279 62.1151V59.4084C93.7259 59.3187 93.7419 59.2295 93.7749 59.1461C93.808 59.0627 93.8574 58.9867 93.9203 58.9225C93.9832 58.8584 94.0583 58.8075 94.1412 58.7727C94.2241 58.7379 94.3132 58.72 94.4031 58.72C94.4931 58.72 94.5821 58.7379 94.665 58.7727C94.748 58.8075 94.8231 58.8584 94.886 58.9225C94.9489 58.9867 94.9983 59.0627 95.0313 59.1461C95.0643 59.2295 95.0803 59.3187 95.0783 59.4084V62.1148C95.0784 62.2032 95.0609 62.2908 95.027 62.3725C94.9931 62.4542 94.9434 62.5285 94.8807 62.591C94.8181 62.6536 94.7436 62.7032 94.6617 62.7371C94.5798 62.771 94.492 62.7885 94.4033 62.7885ZM37.0051 60.1336C36.826 60.1336 36.6542 60.0627 36.5275 59.9364C36.4009 59.8101 36.3297 59.6389 36.3297 59.4603V56.7538C36.3297 56.5752 36.4009 56.404 36.5275 56.2777C36.6542 56.1514 36.826 56.0805 37.0051 56.0805C37.1842 56.0805 37.356 56.1514 37.4826 56.2777C37.6093 56.404 37.6804 56.5752 37.6804 56.7538V59.4603C37.6804 59.6388 37.6092 59.81 37.4825 59.9362C37.3559 60.0624 37.1841 60.1333 37.0051 60.1333V60.1336ZM94.4033 57.3756C94.2242 57.3756 94.0524 57.3046 93.9257 57.1784C93.7991 57.0521 93.7279 56.8808 93.7279 56.7022V53.9998C93.7257 53.9101 93.7414 53.8209 93.7742 53.7374C93.807 53.6539 93.8562 53.5778 93.9189 53.5135C93.9816 53.4492 94.0565 53.398 94.1393 53.363C94.2221 53.328 94.3111 53.3098 94.4011 53.3095C94.491 53.3093 94.5801 53.3269 94.6631 53.3614C94.7461 53.396 94.8214 53.4467 94.8845 53.5106C94.9476 53.5745 94.9972 53.6504 95.0305 53.7337C95.0638 53.817 95.08 53.9061 95.0783 53.9958V56.7022C95.0782 56.8807 95.0071 57.0518 94.8805 57.178C94.7539 57.3042 94.5823 57.3751 94.4033 57.3752V57.3756ZM37.0051 54.7207C36.826 54.7207 36.6542 54.6498 36.5275 54.5235C36.4009 54.3972 36.3297 54.2259 36.3297 54.0473V53.9998C36.3278 53.4005 36.5296 52.8183 36.9023 52.3481C37.275 51.8779 37.7965 51.5475 38.3817 51.4109C38.5546 51.3733 38.7355 51.4048 38.8853 51.4988C39.0352 51.5928 39.142 51.7417 39.1828 51.9135C39.2237 52.0852 39.1952 52.2661 39.1036 52.4171C39.0121 52.5682 38.8646 52.6773 38.6931 52.7211C38.4042 52.7887 38.1468 52.9519 37.9628 53.1841C37.7789 53.4163 37.6794 53.7039 37.6804 53.9998V54.0473C37.6804 54.2259 37.6092 54.3971 37.4825 54.5233C37.3559 54.6495 37.1841 54.7204 37.0051 54.7204V54.7207ZM92.8211 52.7281C92.7743 52.7281 92.7277 52.7233 92.682 52.7137C92.5924 52.6952 92.5012 52.6859 92.4098 52.6859H90.1089C89.9298 52.6859 89.758 52.615 89.6313 52.4887C89.5047 52.3624 89.4335 52.1911 89.4335 52.0126C89.4335 51.834 89.5047 51.6627 89.6313 51.5364C89.758 51.4101 89.9298 51.3392 90.1089 51.3392H92.4098C92.5943 51.3392 92.7783 51.3582 92.9588 51.3958C93.1222 51.4301 93.267 51.5234 93.3654 51.6578C93.4638 51.7923 93.5088 51.9583 93.4917 52.1238C93.4746 52.2894 93.3966 52.4427 93.2727 52.5543C93.1489 52.6659 92.988 52.7278 92.8211 52.7281ZM87.3943 52.6859H84.6798C84.5007 52.6859 84.3289 52.615 84.2022 52.4887C84.0756 52.3624 84.0044 52.1911 84.0044 52.0126C84.0044 51.834 84.0756 51.6627 84.2022 51.5364C84.3289 51.4101 84.5007 51.3392 84.6798 51.3392H87.3943C87.5734 51.3392 87.7452 51.4101 87.8719 51.5364C87.9985 51.6627 88.0697 51.834 88.0697 52.0126C88.0697 52.1911 87.9985 52.3624 87.8719 52.4887C87.7452 52.615 87.5734 52.6859 87.3943 52.6859ZM81.9656 52.6859H79.251C79.1623 52.6859 79.0745 52.6685 78.9926 52.6346C78.9106 52.6008 78.8362 52.5512 78.7735 52.4887C78.7108 52.4262 78.661 52.3519 78.6271 52.2702C78.5931 52.1885 78.5757 52.101 78.5757 52.0126C78.5757 51.9241 78.5931 51.8366 78.6271 51.7549C78.661 51.6732 78.7108 51.599 78.7735 51.5364C78.8362 51.4739 78.9106 51.4243 78.9926 51.3905C79.0745 51.3566 79.1623 51.3392 79.251 51.3392H81.9656C82.1447 51.3392 82.3165 51.4101 82.4431 51.5364C82.5698 51.6627 82.6409 51.834 82.6409 52.0126C82.6409 52.1911 82.5698 52.3624 82.4431 52.4887C82.3165 52.615 82.1447 52.6859 81.9656 52.6859ZM76.5365 52.6859H73.8219C73.6428 52.6859 73.4711 52.615 73.3444 52.4887C73.2177 52.3624 73.1466 52.1911 73.1466 52.0126C73.1466 51.834 73.2177 51.6627 73.3444 51.5364C73.4711 51.4101 73.6428 51.3392 73.8219 51.3392H76.5365C76.7156 51.3392 76.8874 51.4101 77.014 51.5364C77.1407 51.6627 77.2118 51.834 77.2118 52.0126C77.2118 52.1911 77.1407 52.3624 77.014 52.4887C76.8874 52.615 76.7156 52.6859 76.5365 52.6859ZM71.1074 52.6859H68.3929C68.3042 52.6859 68.2164 52.6685 68.1344 52.6346C68.0525 52.6008 67.978 52.5512 67.9153 52.4887C67.8526 52.4262 67.8028 52.3519 67.7689 52.2702C67.735 52.1885 67.7175 52.101 67.7175 52.0126C67.7175 51.9241 67.735 51.8366 67.7689 51.7549C67.8028 51.6732 67.8526 51.599 67.9153 51.5364C67.978 51.4739 68.0525 51.4243 68.1344 51.3905C68.2164 51.3566 68.3042 51.3392 68.3929 51.3392H71.1074C71.2865 51.3392 71.4583 51.4101 71.585 51.5364C71.7116 51.6627 71.7828 51.834 71.7828 52.0126C71.7828 52.1911 71.7116 52.3624 71.585 52.4887C71.4583 52.615 71.2865 52.6859 71.1074 52.6859ZM65.6783 52.6859H62.9638C62.8751 52.6859 62.7873 52.6685 62.7053 52.6346C62.6234 52.6008 62.5489 52.5512 62.4862 52.4887C62.4235 52.4262 62.3738 52.3519 62.3398 52.2702C62.3059 52.1885 62.2884 52.101 62.2884 52.0126C62.2884 51.9241 62.3059 51.8366 62.3398 51.7549C62.3738 51.6732 62.4235 51.599 62.4862 51.5364C62.5489 51.4739 62.6234 51.4243 62.7053 51.3905C62.7873 51.3566 62.8751 51.3392 62.9638 51.3392H65.68C65.7687 51.3392 65.8565 51.3566 65.9384 51.3905C66.0204 51.4243 66.0948 51.4739 66.1576 51.5364C66.2203 51.599 66.27 51.6732 66.304 51.7549C66.3379 51.8366 66.3554 51.9241 66.3554 52.0126C66.3554 52.101 66.3379 52.1885 66.304 52.2702C66.27 52.3519 66.2203 52.4262 66.1576 52.4887C66.0948 52.5512 66.0204 52.6008 65.9384 52.6346C65.8565 52.6685 65.7687 52.6859 65.68 52.6859H65.6783ZM60.2492 52.6859H57.5347C57.3556 52.6859 57.1838 52.615 57.0571 52.4887C56.9305 52.3624 56.8593 52.1911 56.8593 52.0126C56.8593 51.834 56.9305 51.6627 57.0571 51.5364C57.1838 51.4101 57.3556 51.3392 57.5347 51.3392H60.2492C60.4283 51.3392 60.6001 51.4101 60.7268 51.5364C60.8534 51.6627 60.9246 51.834 60.9246 52.0126C60.9246 52.1911 60.8534 52.3624 60.7268 52.4887C60.6001 52.615 60.4283 52.6859 60.2492 52.6859ZM54.8201 52.6859H52.1056C51.9265 52.6859 51.7547 52.615 51.628 52.4887C51.5014 52.3624 51.4302 52.1911 51.4302 52.0126C51.4302 51.834 51.5014 51.6627 51.628 51.5364C51.7547 51.4101 51.9265 51.3392 52.1056 51.3392H54.8201C54.9993 51.3392 55.171 51.4101 55.2977 51.5364C55.4243 51.6627 55.4955 51.834 55.4955 52.0126C55.4955 52.1911 55.4243 52.3624 55.2977 52.4887C55.171 52.615 54.9993 52.6859 54.8201 52.6859ZM49.3911 52.6859H46.6765C46.4974 52.6859 46.3256 52.615 46.199 52.4887C46.0723 52.3624 46.0011 52.1911 46.0011 52.0126C46.0011 51.834 46.0723 51.6627 46.199 51.5364C46.3256 51.4101 46.4974 51.3392 46.6765 51.3392H49.3911C49.5702 51.3392 49.742 51.4101 49.8686 51.5364C49.9953 51.6627 50.0664 51.834 50.0664 52.0126C50.0664 52.1911 49.9953 52.3624 49.8686 52.4887C49.742 52.615 49.5702 52.6859 49.3911 52.6859ZM43.9623 52.6859H41.2478C41.1591 52.6859 41.0712 52.6685 40.9893 52.6346C40.9074 52.6008 40.8329 52.5512 40.7702 52.4887C40.7075 52.4262 40.6577 52.3519 40.6238 52.2702C40.5899 52.1885 40.5724 52.101 40.5724 52.0126C40.5724 51.9241 40.5899 51.8366 40.6238 51.7549C40.6577 51.6732 40.7075 51.599 40.7702 51.5364C40.8329 51.4739 40.9074 51.4243 40.9893 51.3905C41.0712 51.3566 41.1591 51.3392 41.2478 51.3392H43.9623C44.1414 51.3392 44.3132 51.4101 44.4399 51.5364C44.5665 51.6627 44.6377 51.834 44.6377 52.0126C44.6377 52.1911 44.5665 52.3624 44.4399 52.4887C44.3132 52.615 44.1414 52.6859 43.9623 52.6859Z" fill="#20225C"/>
<path d="M96.2705 66.0373H76.5641C75.7988 66.0373 75.1785 66.6559 75.1785 67.4189V75.0331C75.1785 75.7961 75.7988 76.4146 76.5641 76.4146H96.2705C97.0358 76.4146 97.6562 75.7961 97.6562 75.0331V67.4189C97.6562 66.6559 97.0358 66.0373 96.2705 66.0373Z" fill="#20225C"/>
<path d="M97.0578 65.0732H77.3514C76.5861 65.0732 75.9657 65.6917 75.9657 66.4547V74.069C75.9657 74.832 76.5861 75.4505 77.3514 75.4505H97.0578C97.823 75.4505 98.4434 74.832 98.4434 74.069V66.4547C98.4434 65.6917 97.823 65.0732 97.0578 65.0732Z" fill="#5B97EF"/>
<path d="M81.1777 72.0127C82.1475 72.0127 82.9336 71.2289 82.9336 70.262C82.9336 69.2951 82.1475 68.5113 81.1777 68.5113C80.2079 68.5113 79.4218 69.2951 79.4218 70.262C79.4218 71.2289 80.2079 72.0127 81.1777 72.0127Z" fill="#20225C"/>
<path d="M113.663 44.8352C115.789 44.8352 117.513 43.1164 117.513 40.9961C117.513 38.8758 115.789 37.157 113.663 37.157C111.536 37.157 109.812 38.8758 109.812 40.9961C109.812 43.1164 111.536 44.8352 113.663 44.8352Z" fill="#3B82F4"/>
<path d="M2.842 42.5237C4.03446 42.5237 5.00113 41.5599 5.00113 40.371C5.00113 39.1821 4.03446 38.2183 2.842 38.2183C1.64954 38.2183 0.682861 39.1821 0.682861 40.371C0.682861 41.5599 1.64954 42.5237 2.842 42.5237Z" fill="#F58042"/>
<path d="M40.5724 23.8722C42.2488 23.8722 43.6078 22.5173 43.6078 20.8458C43.6078 19.1744 42.2488 17.8194 40.5724 17.8194C38.896 17.8194 37.537 19.1744 37.537 20.8458C37.537 22.5173 38.896 23.8722 40.5724 23.8722Z" fill="#3B82F4"/>
<path d="M71.1407 5.67133C72.5123 5.67133 73.6241 4.56279 73.6241 3.19534C73.6241 1.8279 72.5123 0.71936 71.1407 0.71936C69.7692 0.71936 68.6573 1.8279 68.6573 3.19534C68.6573 4.56279 69.7692 5.67133 71.1407 5.67133Z" fill="#F58042"/>
<path d="M87.2046 21.4488C88.5947 21.4488 89.7216 20.3253 89.7216 18.9393C89.7216 17.5534 88.5947 16.4299 87.2046 16.4299C85.8145 16.4299 84.6876 17.5534 84.6876 18.9393C84.6876 20.3253 85.8145 21.4488 87.2046 21.4488Z" fill="#B7CAE5"/>
</svg>
