<svg width="19" height="19" viewBox="0 0 19 19" fill="none" xmlns="http://www.w3.org/2000/svg">
<path d="M12.3147 7.0371V9.85189C12.3147 9.94521 12.2777 10.0347 12.2117 10.1007C12.1457 10.1667 12.0562 10.2037 11.9629 10.2037C11.123 10.2037 10.3176 10.5374 9.72373 11.1312C9.12987 11.7251 8.79624 12.5305 8.79624 13.3704C8.79624 13.4637 8.75917 13.5532 8.69319 13.6192C8.6272 13.6852 8.53771 13.7222 8.44439 13.7222C8.35108 13.7222 8.26158 13.6852 8.1956 13.6192C8.12961 13.5532 8.09254 13.4637 8.09254 13.3704C8.09233 12.7495 8.24151 12.1376 8.52749 11.5864C8.81348 11.0353 9.22787 10.5611 9.73568 10.2037H4.9259V13.3704C4.9259 13.9303 5.14832 14.4672 5.54423 14.8632C5.94014 15.2591 6.4771 15.4815 7.037 15.4815H12.3147C12.8746 15.4815 13.4116 15.2591 13.8075 14.8632C14.2034 14.4672 14.4258 13.9303 14.4258 13.3704C14.4258 6.51988 14.5525 6.73803 14.074 6.27007C13.9268 6.1254 13.7398 6.02805 13.5369 5.99052C13.334 5.95299 13.1245 5.97701 12.9353 6.05948C12.7462 6.14195 12.586 6.2791 12.4754 6.45332C12.3648 6.62753 12.3089 6.83083 12.3147 7.0371Z" fill="white"/>
<path d="M13.0182 16.1853H6.33309C5.94445 16.1853 5.62939 16.5003 5.62939 16.889V18.2964C5.62939 18.685 5.94445 19.0001 6.33309 19.0001H13.0182C13.4069 19.0001 13.7219 18.685 13.7219 18.2964V16.889C13.7219 16.5003 13.4069 16.1853 13.0182 16.1853Z" fill="white"/>
<path d="M11.6108 8.79608H4.92565C4.83233 8.79608 4.74284 8.75901 4.67686 8.69303C4.61087 8.62704 4.5738 8.53755 4.5738 8.44423C4.5738 8.16428 4.46259 7.8958 4.26464 7.69785C4.06669 7.49989 3.7982 7.38868 3.51825 7.38868C3.42494 7.38868 3.33544 7.35161 3.26946 7.28563C3.20348 7.21965 3.16641 7.13015 3.16641 7.03684V3.51834C3.16641 3.42503 3.20348 3.33553 3.26946 3.26955C3.33544 3.20357 3.42494 3.1665 3.51825 3.1665C3.79639 3.16625 4.06318 3.05625 4.26066 2.86039C4.33103 2.79002 4.54917 2.81465 2.46271 2.81465V8.44423C2.46271 8.72418 2.57392 8.99266 2.77187 9.19062C2.96982 9.38857 3.23831 9.49978 3.51825 9.49978H11.6108V8.79608Z" fill="white"/>
<path d="M15.4813 6.83614C15.5942 6.78516 15.7121 6.74624 15.8332 6.72003V3.83487C15.5067 3.76885 15.2061 3.61004 14.9676 3.37746C14.8023 3.21606 14.6686 3.02511 14.5735 2.8145H11.2838C12.6912 4.42245 11.7799 7.38854 9.85173 7.38854C7.9236 7.38854 7.03694 4.41894 8.42323 2.8145C5.0877 2.8145 5.12992 2.78284 5.12992 2.8145C5.01716 3.07312 4.84386 3.30083 4.62464 3.47841C4.40541 3.656 4.14669 3.77825 3.8703 3.83487V6.72003C4.20839 6.78898 4.51874 6.95583 4.76272 7.19982C5.00671 7.4438 5.17356 7.75415 5.24251 8.09224H11.611C11.611 7.10706 11.4984 6.42799 12.1247 5.79467C12.3705 5.54821 12.6839 5.38022 13.0253 5.31197C13.3666 5.24372 13.7206 5.27826 14.0423 5.41124C14.364 5.54422 14.639 5.76964 14.8325 6.05899C15.0261 6.34833 15.1294 6.68859 15.1295 7.03669C15.2383 6.95606 15.3565 6.88873 15.4813 6.83614Z" fill="white"/>
<path d="M15.4427 2.86078C15.6402 3.05664 15.907 3.16665 16.1851 3.16689C16.2785 3.16689 16.368 3.20396 16.4339 3.26994C16.4999 3.33593 16.537 3.42542 16.537 3.51874V7.03723C16.537 7.13054 16.4999 7.22004 16.4339 7.28602C16.368 7.35201 16.2785 7.38908 16.1851 7.38908C16.046 7.38873 15.9081 7.41591 15.7795 7.46905C15.6509 7.52219 15.534 7.60024 15.4357 7.6987C15.0487 8.09277 15.1296 8.44462 15.1296 9.50017C16.2766 9.50017 16.2766 9.50017 16.4596 9.46147C16.6833 9.40122 16.8811 9.26901 17.0222 9.08524C17.1634 8.90147 17.2402 8.67635 17.2407 8.44462V2.81504C15.2105 2.81504 15.3618 2.79393 15.4427 2.86078Z" fill="white"/>
<path d="M17.9442 0H1.75916C1.47921 0 1.21073 0.111209 1.01278 0.309163C0.814822 0.507116 0.703613 0.775599 0.703613 1.05555V3.87034C0.703613 4.15029 0.814822 4.41877 1.01278 4.61672C1.21073 4.81468 1.47921 4.92589 1.75916 4.92589V2.81479C1.66584 2.81479 1.57635 2.77772 1.51037 2.71174C1.44438 2.64575 1.40731 2.55626 1.40731 2.46294C1.40731 2.36963 1.44438 2.28013 1.51037 2.21415C1.57635 2.14816 1.66584 2.11109 1.75916 2.11109H17.9442C18.0375 2.11109 18.127 2.14816 18.193 2.21415C18.259 2.28013 18.2961 2.36963 18.2961 2.46294C18.2961 2.55626 18.259 2.64575 18.193 2.71174C18.127 2.77772 18.0375 2.81479 17.9442 2.81479V4.92589C18.2242 4.92589 18.4926 4.81468 18.6906 4.61672C18.8886 4.41877 18.9998 4.15029 18.9998 3.87034V1.05555C18.9998 0.775599 18.8886 0.507116 18.6906 0.309163C18.4926 0.111209 18.2242 0 17.9442 0Z" fill="white"/>
<path d="M9.85173 6.68501C10.629 6.68501 11.2591 5.8186 11.2591 4.74984C11.2591 3.68107 10.629 2.81467 9.85173 2.81467C9.07445 2.81467 8.44434 3.68107 8.44434 4.74984C8.44434 5.8186 9.07445 6.68501 9.85173 6.68501Z" fill="white"/>
</svg>
