<svg width="27" height="27" viewBox="0 0 27 27" fill="none" xmlns="http://www.w3.org/2000/svg">
<path d="M23.8125 0.609375H3.1875C2.36699 0.609375 1.58008 0.935323 0.999888 1.51551C0.419698 2.0957 0.09375 2.88261 0.09375 3.70312V23.2969C0.09375 24.1174 0.419698 24.9043 0.999888 25.4845C1.58008 26.0647 2.36699 26.3906 3.1875 26.3906H23.8125C24.633 26.3906 25.4199 26.0647 26.0001 25.4845C26.5803 24.9043 26.9062 24.1174 26.9062 23.2969V3.70312C26.9062 2.88261 26.5803 2.0957 26.0001 1.51551C25.4199 0.935323 24.633 0.609375 23.8125 0.609375ZM5.32734 11.3189C5.24966 11.1301 5.22975 10.9225 5.27014 10.7224C5.31052 10.5223 5.40939 10.3387 5.55422 10.1948L8.64797 7.10109C8.84525 6.93215 9.09901 6.84387 9.35855 6.85389C9.6181 6.86392 9.8643 6.97151 10.048 7.15517C10.2316 7.33883 10.3392 7.58503 10.3492 7.84457C10.3593 8.10411 10.271 8.35788 10.102 8.55516L8.77172 9.89062H20.2031C20.4766 9.89062 20.7389 9.99927 20.9323 10.1927C21.1257 10.3861 21.2344 10.6484 21.2344 10.9219C21.2344 11.1954 21.1257 11.4577 20.9323 11.6511C20.7389 11.8445 20.4766 11.9531 20.2031 11.9531H6.28125C6.07736 11.9535 5.87793 11.8935 5.70814 11.7806C5.53835 11.6678 5.40584 11.5071 5.32734 11.3189ZM21.9614 17.3208L18.8677 20.4145C18.7752 20.5225 18.6614 20.6102 18.5335 20.6721C18.4056 20.734 18.2662 20.7687 18.1242 20.7742C17.9822 20.7797 17.8405 20.7558 17.7082 20.7039C17.5759 20.6521 17.4557 20.5735 17.3552 20.473C17.2547 20.3725 17.176 20.2523 17.1242 20.1199C17.0723 19.9876 17.0484 19.846 17.0539 19.7039C17.0594 19.5619 17.0942 19.4226 17.1561 19.2946C17.218 19.1667 17.3056 19.0529 17.4136 18.9605L18.7439 17.625H7.3125C7.039 17.625 6.77669 17.5164 6.5833 17.323C6.3899 17.1296 6.28125 16.8673 6.28125 16.5938C6.28125 16.3202 6.3899 16.0579 6.5833 15.8645C6.77669 15.6711 7.039 15.5625 7.3125 15.5625H21.2344C21.4383 15.5621 21.6377 15.6221 21.8075 15.735C21.9773 15.8479 22.1098 16.0085 22.1883 16.1967C22.266 16.3855 22.2859 16.5931 22.2455 16.7932C22.2051 16.9933 22.1062 17.1769 21.9614 17.3208Z" fill="white"/>
</svg>
